<svg xmlns="http://www.w3.org/2000/svg" fill="none" viewBox="0 0 1280 1280" height="1280" width="1280">
<path fill="black" d="M1126.08 624.309C1126.08 640.555 1126.08 653.616 1126.08 669.225C1104.1 669.225 1082.44 669.862 1061.09 668.906C1049.63 668.588 1041.34 672.729 1036.25 682.285C993.243 760.33 923.162 803.653 842.25 831.685C775.355 854.621 705.274 863.859 634.875 866.725C598.241 868.318 561.608 867.681 524.975 867.363C519.56 867.363 512.233 866.088 509.048 862.584C494.076 846.338 474.326 844.427 454.257 841.56C426.543 837.419 398.829 832.322 371.116 828.499C357.099 826.588 350.728 820.536 352.321 805.564C353.595 795.689 352.64 785.495 352.64 775.62C393.733 781.036 433.551 786.77 473.37 791.866C579.447 805.245 682.976 793.778 782.363 754.277C811.351 742.81 838.746 724.971 863.275 705.221C905.323 671.136 905.96 620.805 868.053 581.624C833.968 546.265 790.964 526.196 744.456 513.772C666.411 492.748 586.774 488.289 506.18 492.748C448.204 495.934 391.184 503.579 336.075 521.736C282.559 539.575 232.546 562.511 198.462 613.479C183.49 601.692 169.155 590.543 154.82 579.394C183.49 533.523 225.538 506.446 272.047 485.74C294.982 475.547 319.829 468.538 343.402 458.982C351.047 456.115 359.329 451.974 364.107 445.921C373.982 433.817 386.087 429.357 400.741 426.808C479.104 412.792 558.104 411.2 637.104 414.385C739.996 418.845 838.109 441.78 928.577 492.748C976.36 519.506 1014.59 555.821 1036.88 607.108C1041.98 618.894 1050.58 623.991 1063.01 623.991C1083.07 623.991 1103.78 624.309 1126.08 624.309Z"></path>
<path fill="black" d="M556.821 695.346C532.93 696.301 510.313 691.842 490.563 677.825C467.309 661.261 467.309 635.458 492.156 621.123C533.886 597.232 577.208 596.914 618.938 620.168C646.652 635.458 646.334 661.579 619.894 679.418C601.099 692.16 579.438 695.983 556.821 695.346Z"></path>
</svg>
